<?xml version="1.0" encoding="UTF-8"?><!DOCTYPE svg PUBLIC "-//W3C//DTD SVG 1.1//EN" "http://www.w3.org/Graphics/SVG/1.1/DTD/svg11.dtd"><!--Creator: CorelDRAW--><svg xmlns="http://www.w3.org/2000/svg" xml:space="preserve" width="689.707" height="585.253" style="shape-rendering:geometricPrecision;text-rendering:geometricPrecision;image-rendering:optimizeQuality;fill-rule:evenodd;clip-rule:evenodd" viewBox="0 0 7178.49 6091.34"><defs><linearGradient id="id0" x1="273.53" x2="7409.13" y1="958.83" y2="6192.24" gradientUnits="userSpaceOnUse"><stop offset="0" style="stop-opacity:1;stop-color:#3b82f6"/><stop offset="1" style="stop-opacity:1;stop-color:#00ff01"/></linearGradient></defs><g id="Camada_x0020_1"><metadata id="CorelCorpID_0Corel-Layer"/><g id="_2945037022464"><path d="M3045.23 1088.46l2905.11 0 0 -1087.58 -2905.11 0c-643.83,0 -1241.54,200.94 -1733.89,543.25l1024.29 677.64c220.14,-86.01 459.48,-133.31 709.6,-133.31zm-2790.35 738.73c-163.76,373.45 -254.88,785.71 -254.88,1218.93 0,1679.22 1366,3045.23 3045.23,3045.23l3045.23 0 0 -530.18 -1087.58 -695.9 0 138.51 -1957.65 0c-1078.88,0 -1957.64,-878.77 -1957.64,-1957.65 0,-217.06 35.63,-425.99 101.24,-621.32l-933.95 -597.6zm5695.46 923.1l-1304.25 0 1304.25 862.85 0 -862.85zm-2905.11 862.34l0 225.23 352 0 -352 -225.23z" style="fill:#fff;fill-rule:nonzero"/><polygon points="6090.91,0 6090.91,3874.69 273.53,26.1 273.53,1672.23 7178.49,6090.46 7178.49,8.7 " style="fill:url(#id0);fill-rule:nonzero"/></g></g></svg>